<svg width="49" height="42" viewBox="0 0 49 42" fill="none" xmlns="http://www.w3.org/2000/svg">
<path fill-rule="evenodd" clip-rule="evenodd" d="M29.3631 2.84565L1.03329 0.00489922C0.848974 -0.0141584 0.663098 0.0226566 0.499798 0.11057C0.33664 0.198484 0.203444 0.33344 0.117818 0.49794C0.0321921 0.662438 -0.00203329 0.84889 0.0194087 1.03312C0.0409927 1.21735 0.11739 1.39085 0.238657 1.53114L7.39545 9.95247C7.44487 10.0116 7.47597 10.0839 7.48463 10.1605C7.49344 10.2371 7.47952 10.3145 7.44473 10.3833L5.21079 14.7748C4.45662 16.1315 3.84176 17.0882 5.50742 16.7136C11.5951 15.3444 25.509 19.6123 30.992 30.9353C31.7274 33.488 32.2716 32.0153 32.2716 32.0153C33.7065 29.5108 34.6665 27.6699 35.8656 25.3748C35.9011 25.3061 35.9565 25.2496 36.0245 25.2128C36.0925 25.176 36.1699 25.1602 36.2469 25.168L40.3974 25.5545C40.3974 27.3466 39.5289 29.3331 39.7552 31.7924C39.7626 31.8576 39.7528 31.9238 39.727 31.9842C39.7012 32.0446 39.66 32.0973 39.6076 32.1369C39.2191 32.4109 38.9541 32.827 38.8697 33.295C38.7855 33.7632 38.8888 34.2455 39.1574 34.6381C39.1904 34.6869 39.2115 34.7429 39.2192 34.8015C39.2269 34.86 39.2209 34.9194 39.2016 34.9752L37.381 39.8985C37.3611 39.9525 37.3532 40.0101 37.3582 40.0675C37.3631 40.1247 37.3807 40.1802 37.4097 40.2299C37.4385 40.2796 37.4781 40.3222 37.5256 40.3547C37.573 40.3872 37.627 40.4089 37.6836 40.418L41.8391 41.0801C41.8973 41.0893 41.9571 41.0851 42.0135 41.0678C42.07 41.0505 42.1218 41.0205 42.165 40.9802C42.2082 40.9398 42.2415 40.8902 42.2627 40.835C42.2837 40.7798 42.2921 40.7206 42.2868 40.6617L41.8391 35.4651C41.8346 35.392 41.8499 35.3189 41.8838 35.2538C41.9176 35.1888 41.9685 35.1341 42.0309 35.0959C42.9289 34.5198 43.0397 32.6342 41.7701 31.8957C41.7191 31.8637 41.6762 31.8205 41.6446 31.7693C41.613 31.718 41.5937 31.6602 41.588 31.6003C41.3421 29.3355 41.9227 27.4476 42.0236 25.7563H42.1244L48.5556 26.3816C48.6328 26.3894 48.7108 26.374 48.7792 26.3372C48.8476 26.3004 48.9035 26.2439 48.9394 26.1749C48.9754 26.1061 48.9899 26.0279 48.9813 25.9507C48.9725 25.8734 48.9407 25.8006 48.8901 25.7416L29.6214 2.98105C29.5558 2.90449 29.4634 2.85603 29.3631 2.84565Z" fill="#04009A"/>
</svg>
