<svg width="102" height="77" viewBox="0 0 102 77" fill="none" xmlns="http://www.w3.org/2000/svg">
<path d="M98.8545 53.2562C97.9551 52.6599 96.9337 52.2712 95.8647 52.1182C93.8215 54.546 90.7287 56.1444 87.5187 56.6373C82.7341 57.3734 78.2167 55.2821 76.0376 50.2278C71.956 40.7247 73.3853 34.495 71.9068 24.3539C71.3445 20.5007 70.2667 17.3275 68.8607 14.7128C67.0527 11.1719 64.4535 8.09226 61.2636 5.71105C58.0737 3.32998 54.3783 1.71107 50.4621 0.978937C46.5459 0.24666 42.5132 0.420984 38.6752 1.48817C34.8371 2.55536 31.2959 4.4871 28.3246 7.13454C25.3532 9.78183 23.0308 13.0742 21.5365 16.7577C20.0423 20.4413 19.4161 24.4179 19.7059 28.3809C19.9957 32.3439 21.194 36.1878 23.2085 39.6161C25.2229 43.0446 27.9997 45.9659 31.3247 48.1552C26.029 45.916 21.6246 41.9925 18.7982 36.9963C15.9718 32.0001 14.882 26.2118 15.6988 20.5335C4.26935 27.5738 -6.45733 42.2831 4.71452 72.6973C4.71452 72.6973 6.40858 73.8656 11.2751 74.0105C15.898 74.1461 18.07 73.1857 18.07 73.1857C18.07 73.1857 16.4017 64.0376 17.4515 59.6446C17.4515 59.6446 23.5084 63.7525 31.702 63.7525C35.2533 63.7584 38.76 62.9636 41.96 61.4275C41.96 61.4275 41.2383 70.3934 42.8175 75.3144C42.8175 75.3144 46.0345 76.8824 51.1683 76.922C55.8685 76.9571 57.5742 75.8541 57.5742 75.8541C57.5742 75.8541 54.2377 61.8341 59.683 50.4288C65.8758 61.6449 77.6356 66.865 88.2403 64.1989C95.5648 62.3575 99.1708 58.1234 101.127 55.5859C100.567 54.6392 99.788 53.8402 98.8545 53.2562ZM59.8822 32.3196C59.2676 32.4504 58.6281 32.3965 58.0443 32.1648C57.4606 31.9331 56.9589 31.534 56.6024 31.018C56.246 30.502 56.0512 29.892 56.0423 29.2655C56.0335 28.6391 56.211 28.0239 56.5526 27.4981C56.8943 26.9721 57.3844 26.5591 57.9615 26.3111C58.5385 26.0631 59.1762 25.9912 59.7942 26.1046C60.412 26.2181 60.9824 26.5116 61.433 26.9482C61.8837 27.3848 62.1944 27.9449 62.326 28.5575C62.4134 28.9646 62.4195 29.3848 62.3439 29.7942C62.2684 30.2036 62.1126 30.5942 61.8857 30.9435C61.6588 31.2929 61.365 31.5942 61.0212 31.8304C60.6774 32.0665 60.2903 32.2327 59.8822 32.3196ZM60.0181 55.6863C61.2224 65.0868 65.4915 71.4215 65.4915 71.4215C65.4915 71.4215 63.118 72.6552 59.1839 72.5898C58.781 69.6999 58.6383 66.7799 58.7574 63.8647C58.8652 61.0997 59.2881 58.3559 60.0181 55.6863ZM19.2627 63.0702C19.2752 65.3606 19.4395 67.6478 19.7547 69.9167C23.3067 69.9844 25.6898 69.2951 25.6898 69.2951C25.1898 67.8751 24.7866 66.423 24.483 64.949C22.6906 64.4778 20.9437 63.8492 19.2627 63.0702Z" fill="#04009A"/>
</svg>
